<svg width="30" height="30" viewBox="0 0 30 30" fill="none" xmlns="http://www.w3.org/2000/svg">
<path d="M13.0545 15.3819L0.638049 21.398C0.448074 21.4901 0.286718 21.64 0.173488 21.8295C0.0602574 22.0191 0 22.2402 0 22.4662C0 22.6921 0.0602574 22.9132 0.173488 23.1028C0.286718 23.2923 0.448074 23.4422 0.638049 23.5343L13.0545 29.5501C13.6667 29.8468 14.3296 30.0001 15 30.0001C15.6704 30.0001 16.3333 29.8468 16.9455 29.5501L29.362 23.5336C29.5519 23.4416 29.7133 23.2917 29.8265 23.1021C29.9397 22.9126 30 22.6915 30 22.4655C30 22.2395 29.9397 22.0184 29.8265 21.8289C29.7133 21.6393 29.5519 21.4895 29.362 21.3974L16.9452 15.3819C16.333 15.0852 15.6701 14.9319 14.9997 14.9319C14.3293 14.9319 13.6664 15.0852 13.0542 15.3819H13.0545Z" fill="url(#paint0_linear_601_2161)"/>
<path d="M13.0545 10.4046L0.638049 16.4204C0.448074 16.5125 0.286718 16.6624 0.173488 16.8519C0.0602574 17.0415 0 17.2626 0 17.4885C0 17.7145 0.0602574 17.9356 0.173488 18.1252C0.286718 18.3147 0.448074 18.4646 0.638049 18.5567L13.0545 24.5725C13.6667 24.8692 14.3296 25.0225 15 25.0225C15.6704 25.0225 16.3333 24.8692 16.9455 24.5725L29.362 18.556C29.5519 18.4639 29.7133 18.3141 29.8265 18.1245C29.9397 17.935 30 17.7139 30 17.4879C30 17.2619 29.9397 17.0408 29.8265 16.8513C29.7133 16.6617 29.5519 16.5118 29.362 16.4198L16.9452 10.4046C16.333 10.1079 15.6701 9.95459 14.9997 9.95459C14.3293 9.95459 13.6664 10.1079 13.0542 10.4046H13.0545Z" fill="url(#paint1_linear_601_2161)"/>
<path d="M13.0545 15.3818L3.56989 19.9773L13.0545 24.5729C13.6667 24.8695 14.3296 25.0228 15 25.0228C15.6704 25.0228 16.3333 24.8695 16.9455 24.5729L26.4302 19.9773L16.9452 15.3818C16.333 15.0852 15.6702 14.9319 14.9999 14.9319C14.3295 14.9319 13.6667 15.0852 13.0545 15.3818Z" fill="url(#paint2_linear_601_2161)"/>
<path d="M13.0545 5.42703L0.638049 11.4432C0.448074 11.5353 0.286718 11.6851 0.173488 11.8747C0.0602574 12.0642 0 12.2854 0 12.5113C0 12.7373 0.0602574 12.9584 0.173488 13.1479C0.286718 13.3375 0.448074 13.4874 0.638049 13.5794L13.0545 19.5953C13.6667 19.8919 14.3296 20.0453 15 20.0453C15.6704 20.0453 16.3333 19.8919 16.9455 19.5953L29.362 13.5785C29.5519 13.4864 29.7133 13.3365 29.8265 13.147C29.9397 12.9574 30 12.7363 30 12.5104C30 12.2844 29.9397 12.0633 29.8265 11.8737C29.7133 11.6842 29.5519 11.5343 29.362 11.4422L16.9452 5.42703C16.333 5.13037 15.6701 4.97705 14.9997 4.97705C14.3293 4.97705 13.6664 5.13037 13.0542 5.42703H13.0545Z" fill="url(#paint3_linear_601_2161)"/>
<path d="M13.0545 10.4044L3.56989 15L13.0545 19.5955C13.6667 19.8922 14.3296 20.0455 15 20.0455C15.6704 20.0455 16.3333 19.8922 16.9455 19.5955L26.4302 15L16.9455 10.4044C16.3333 10.1078 15.6704 9.95447 15 9.95447C14.3296 9.95447 13.6667 10.1078 13.0545 10.4044Z" fill="url(#paint4_linear_601_2161)"/>
<path d="M13.0545 0.449911L0.638049 6.46576C0.448074 6.55783 0.286718 6.7077 0.173488 6.89725C0.0602574 7.0868 0 7.30792 0 7.53388C0 7.75983 0.0602574 7.98095 0.173488 8.1705C0.286718 8.36006 0.448074 8.50993 0.638049 8.60199L13.0545 14.6182C13.6667 14.9148 14.3296 15.0681 15 15.0681C15.6704 15.0681 16.3333 14.9148 16.9455 14.6182L29.362 8.60103C29.5519 8.50896 29.7133 8.3591 29.8265 8.16954C29.9397 7.97999 30 7.75887 30 7.53292C30 7.30696 29.9397 7.08584 29.8265 6.89629C29.7133 6.70674 29.5519 6.55687 29.362 6.4648L16.9452 0.449911C16.333 0.153295 15.6702 0 14.9999 0C14.3295 0 13.6667 0.153295 13.0545 0.449911Z" fill="url(#paint5_linear_601_2161)"/>
<path d="M13.0545 5.42696L3.56989 10.0225L13.0545 14.618C13.6667 14.9147 14.3296 15.068 15 15.068C15.6704 15.068 16.3333 14.9147 16.9455 14.618L26.4302 10.0225L16.9452 5.42696C16.333 5.13035 15.6702 4.97705 14.9999 4.97705C14.3295 4.97705 13.6667 5.13035 13.0545 5.42696Z" fill="url(#paint6_linear_601_2161)"/>
<defs>
<linearGradient id="paint0_linear_601_2161" x1="14.37" y1="18.1414" x2="14.8107" y2="30.1983" gradientUnits="userSpaceOnUse">
<stop stop-color="#2F75DD"/>
<stop offset="1" stop-color="#0052CC"/>
</linearGradient>
<linearGradient id="paint1_linear_601_2161" x1="14.37" y1="13.1641" x2="14.8107" y2="25.2207" gradientUnits="userSpaceOnUse">
<stop stop-color="#4485E6"/>
<stop offset="1" stop-color="#0052CC"/>
</linearGradient>
<linearGradient id="paint2_linear_601_2161" x1="15" y1="22.1267" x2="15" y2="11.7431" gradientUnits="userSpaceOnUse">
<stop stop-color="#2F73A0" stop-opacity="0"/>
<stop offset="1" stop-color="#2F73A0"/>
</linearGradient>
<linearGradient id="paint3_linear_601_2161" x1="14.37" y1="8.18658" x2="14.8107" y2="20.2434" gradientUnits="userSpaceOnUse">
<stop stop-color="#69B3FA"/>
<stop offset="1" stop-color="#2A8EEE"/>
</linearGradient>
<linearGradient id="paint4_linear_601_2161" x1="15" y1="16.554" x2="15" y2="1.37709" gradientUnits="userSpaceOnUse">
<stop stop-color="#2F73A0" stop-opacity="0"/>
<stop offset="1" stop-color="#2F73A0"/>
</linearGradient>
<linearGradient id="paint5_linear_601_2161" x1="13.68" y1="5.0629" x2="15.1376" y2="15.9257" gradientUnits="userSpaceOnUse">
<stop stop-color="#C7E9FF"/>
<stop offset="1" stop-color="#7ACBFF"/>
</linearGradient>
<linearGradient id="paint6_linear_601_2161" x1="14.3142" y1="12.293" x2="15.3034" y2="-4.67204" gradientUnits="userSpaceOnUse">
<stop stop-color="#7ACBFF" stop-opacity="0"/>
<stop offset="1" stop-color="#2F73A0"/>
</linearGradient>
</defs>
</svg>
