<svg width="30" height="30" viewBox="0 0 30 30" fill="none" xmlns="http://www.w3.org/2000/svg">
<path d="M12.8592 17.6821H11.87V27.3626H12.8592V17.6821Z" fill="url(#paint0_linear_596_1619)"/>
<path d="M18.1349 17.6821H17.1456V27.3626H18.1349V17.6821Z" fill="url(#paint1_linear_596_1619)"/>
<path d="M25.5538 25.5494H22.9158C22.7846 25.5494 22.6588 25.4973 22.5661 25.4046C22.4733 25.3118 22.4212 25.186 22.4212 25.0549V17.6819H23.4104V24.5604H25.5538V25.5494Z" fill="url(#paint2_linear_596_1619)"/>
<path d="M7.08901 25.5494H4.45105V24.5604H6.59295V17.6819H7.58219V25.0549C7.58226 25.1858 7.53037 25.3114 7.43791 25.4041C7.34545 25.4969 7.21996 25.5491 7.08901 25.5494Z" fill="url(#paint3_linear_596_1619)"/>
<path d="M12.3646 30C13.2752 30 14.0133 29.2619 14.0133 28.3515C14.0133 27.4411 13.2752 26.7031 12.3646 26.7031C11.454 26.7031 10.7159 27.4411 10.7159 28.3515C10.7159 29.2619 11.454 30 12.3646 30Z" fill="#0052CC"/>
<path d="M17.6402 30C18.5508 30 19.289 29.2619 19.289 28.3515C19.289 27.4411 18.5508 26.7031 17.6402 26.7031C16.7297 26.7031 15.9915 27.4411 15.9915 28.3515C15.9915 29.2619 16.7297 30 17.6402 30Z" fill="#0052CC"/>
<path d="M26.5431 26.7031C27.4536 26.7031 28.1918 25.9651 28.1918 25.0547C28.1918 24.1443 27.4536 23.4062 26.5431 23.4062C25.6325 23.4062 24.8943 24.1443 24.8943 25.0547C24.8943 25.9651 25.6325 26.7031 26.5431 26.7031Z" fill="#0052CC"/>
<path opacity="0.6" d="M26.2585 8.78495C26.2371 6.44775 25.2935 4.21355 23.633 2.56837C21.9724 0.923187 19.7293 0.00012967 17.3916 0C17.3355 0 17.2794 0 17.2236 0L23.8234 18.3394H25.1633C26.3511 18.3383 27.497 17.9006 28.383 17.1097C29.269 16.3188 29.8333 15.2298 29.9685 14.05C30.1037 12.8702 29.8004 11.6818 29.1164 10.711C28.4323 9.74025 27.4152 9.05474 26.2585 8.78495Z" fill="url(#paint4_linear_596_1619)"/>
<path d="M24.7738 8.78514C24.7372 3.98229 21.3839 0.0910996 17.2236 0.00134277C15.6661 0.0304823 14.1439 0.469285 12.8099 1.27359C11.476 2.07789 10.3775 3.21931 9.62507 4.58297C9.08857 4.35149 8.5057 4.24751 7.92224 4.27919C7.33878 4.31087 6.77061 4.47735 6.26234 4.76556C5.75407 5.05376 5.31954 5.45585 4.99288 5.94024C4.66622 6.42464 4.45631 6.97815 4.37965 7.55731C3.05438 7.82175 1.87481 8.56945 1.07024 9.65505C0.265672 10.7407 -0.106402 12.0866 0.0263482 13.4312C0.159099 14.7758 0.787188 16.0231 1.78852 16.9304C2.78985 17.8378 4.09287 18.3405 5.44427 18.3408H23.8242C26.1457 18.3408 28.0278 16.1737 28.0278 13.5C28.0266 11.2034 26.6371 9.28139 24.7738 8.78514Z" fill="url(#paint5_linear_596_1619)"/>
<path d="M3.46208 26.7032C4.37264 26.7032 5.1108 25.9652 5.1108 25.0548C5.1108 24.1444 4.37264 23.4064 3.46208 23.4064C2.55151 23.4064 1.81335 24.1444 1.81335 25.0548C1.81335 25.9652 2.55151 26.7032 3.46208 26.7032Z" fill="#0052CC"/>
<defs>
<linearGradient id="paint0_linear_596_1619" x1="11.87" y1="-80.391" x2="12.8592" y2="-80.391" gradientUnits="userSpaceOnUse">
<stop stop-color="#EDF5FF"/>
<stop offset="1" stop-color="#B5DBFF"/>
</linearGradient>
<linearGradient id="paint1_linear_596_1619" x1="17.1456" y1="-80.391" x2="18.1349" y2="-80.391" gradientUnits="userSpaceOnUse">
<stop stop-color="#EDF5FF"/>
<stop offset="1" stop-color="#B5DBFF"/>
</linearGradient>
<linearGradient id="paint2_linear_596_1619" x1="22.4212" y1="-62.024" x2="25.5538" y2="-62.024" gradientUnits="userSpaceOnUse">
<stop stop-color="#EDF5FF"/>
<stop offset="1" stop-color="#B5DBFF"/>
</linearGradient>
<linearGradient id="paint3_linear_596_1619" x1="4.45105" y1="-62.024" x2="7.58219" y2="-62.024" gradientUnits="userSpaceOnUse">
<stop stop-color="#EDF5FF"/>
<stop offset="1" stop-color="#B5DBFF"/>
</linearGradient>
<linearGradient id="paint4_linear_596_1619" x1="17.8903" y1="-2.74377" x2="25.5149" y2="17.997" gradientUnits="userSpaceOnUse">
<stop stop-color="#4485E5"/>
<stop offset="1" stop-color="#245FD5"/>
</linearGradient>
<linearGradient id="paint5_linear_596_1619" x1="-0.274166" y1="5.48744" x2="23.0409" y2="18.9415" gradientUnits="userSpaceOnUse">
<stop stop-color="#4485E5"/>
<stop offset="1" stop-color="#0052CC"/>
</linearGradient>
</defs>
</svg>
