<svg width="32" height="32" viewBox="0 0 32 32" fill="none" xmlns="http://www.w3.org/2000/svg">
<path d="M15.9996 0C7.16361 0 0 7.16368 0 15.9997C0 24.8361 7.16334 32 15.9996 32C24.8361 32 32 24.8361 32 15.9997C31.9997 7.16368 24.8361 0 15.9996 0ZM9.3605 7.21624C10.4488 7.21624 11.3316 8.0213 11.3316 9.01449C11.3316 10.0077 10.4488 10.8127 9.3605 10.8127C8.2716 10.8127 7.38936 10.0077 7.38936 9.01449C7.38936 8.0213 8.2716 7.21624 9.3605 7.21624ZM11.3466 22.5968H7.45188V12.4339H11.3466V22.5968ZM24.581 22.5968H20.6675V17.0084C20.6675 16.3704 20.5491 15.9189 20.3131 15.6539C20.0769 15.3894 19.7452 15.2566 19.3183 15.2566C18.8461 15.2566 18.4629 15.4354 18.1696 15.7928C17.8761 16.1502 17.7298 16.7912 17.7298 17.7164V22.5968H13.8348V12.4339H17.4614V14.0892C18.0034 13.4133 18.5522 12.93 19.1072 12.6395C19.6622 12.3493 20.338 12.2043 21.1356 12.2043C22.214 12.2043 23.0575 12.5247 23.667 13.166C24.2759 13.807 24.5808 14.7974 24.5808 16.1372V22.5968H24.581Z" fill="#4D4D4D"/>
</svg>
